<svg width="270" height="70" viewBox="0 0 270 70" xmlns="http://www.w3.org/2000/svg">
  <!-- Hintergrund transparent -->
  <rect width="270" height="70" rx="18" fill="#DDDDDD"></rect>

  <!-- Icon-Hintergrund (abgerundetes Quadrat) -->
  <rect x="10" y="10" width="50" height="50" rx="12" fill="#E8F5E9"></rect>

  <!-- Chat-Blase -->
  <path d="M20 24 h30 a4 4 0 0 1 4 4 v14 a4 4 0 0 1 -4 4 h-12 l-5 6 -1 -6 h-12 a4 4 0 0 1 -4 -4 v-14 a4 4 0 0 1 4 -4 z" fill="#FFFFFF" stroke="#2E7D32" stroke-width="1.6"></path>

  <!-- Dokument-Linien -->
  <line x1="24" y1="30" x2="44" y2="30" stroke="#CFD8DC" stroke-width="2" stroke-linecap="round"></line>
  <line x1="24" y1="35" x2="44" y2="35" stroke="#CFD8DC" stroke-width="2" stroke-linecap="round"></line>
  <line x1="24" y1="40" x2="38" y2="40" stroke="#CFD8DC" stroke-width="2" stroke-linecap="round"></line>

  <!-- Blatt (Nachhaltigkeit) -->
  <ellipse cx="48" cy="42" rx="5" ry="9" fill="#2E7D32" transform="rotate(-25 48 42)"></ellipse>
  <path d="M45 44 Q48 42 51 40" stroke="#E8F5E9" stroke-width="1.4" fill="none"></path>

  <!-- Text: RAG-BOT -->
  <text x="80" y="32" font-family="Inter, Roboto, sans-serif" font-size="20" font-weight="700" fill="#263238">
    RAG-BOT
  </text>

  <!-- Unterzeile -->
  <text x="80" y="50" font-family="Inter, Roboto, sans-serif" font-size="11" fill="#546E7A">
    Analyse von Nachhaltigkeitsberichten
  </text>
</svg>
